<svg id="visual" viewBox="0 0 900 600" width="900" height="600" xmlns="http://www.w3.org/2000/svg" xmlns:xlink="http://www.w3.org/1999/xlink" version="1.1"><rect width="900" height="600" fill="#debee4"></rect><g><g transform="translate(751 222)"><path d="M0 -147L94.5 -112.6L144.8 -25.5L127.3 73.5L50.3 138.1L-50.3 138.1L-127.3 73.5L-144.8 -25.5L-94.5 -112.6Z" fill="#e3abdd"></path></g><g transform="translate(320 75)"><path d="M0 -96L61.7 -73.5L94.5 -16.7L83.1 48L32.8 90.2L-32.8 90.2L-83.1 48L-94.5 -16.7L-61.7 -73.5Z" fill="#e3abdd"></path></g><g transform="translate(120 431)"><path d="M0 -95L61.1 -72.8L93.6 -16.5L82.3 47.5L32.5 89.3L-32.5 89.3L-82.3 47.5L-93.6 -16.5L-61.1 -72.8Z" fill="#e3abdd"></path></g></g></svg>